<svg width="24" height="24" viewBox="0 0 24 24" fill="none" xmlns="http://www.w3.org/2000/svg">
<path d="M21.7851 20.1921C21.7851 20.2881 21.7371 20.3361 21.6891 20.4321C20.9691 21.4401 17.0811 22.2561 12.3772 22.2561C7.67316 22.2561 3.73716 21.4881 3.06516 20.4321C3.01716 20.3841 2.96916 20.2881 2.96916 20.1921C2.53716 18.9441 3.49716 17.7441 3.49716 17.7441C3.49716 17.7441 4.84116 18.3681 5.41716 18.6081C9.16116 17.6961 15.5931 17.6961 19.3851 18.6081C19.9611 18.3201 21.3051 17.7441 21.3051 17.7441C21.3051 17.7441 22.2171 18.9921 21.7851 20.1921Z" fill="#E7B549"/>
<path opacity="0.1" d="M19.2884 18.6558C18.9524 18.5598 18.6164 18.5118 18.2324 18.4158C18.4724 18.6558 18.7124 18.8478 18.9044 19.1358C19.1444 19.5198 19.2884 19.9998 19.2404 20.4798C19.1924 20.6718 19.1444 20.9118 19.0484 21.1038C18.9524 21.2958 18.8564 21.4878 18.7604 21.6318C20.2964 21.2958 21.3524 20.8638 21.6884 20.3838C21.7364 20.2878 21.7844 20.2398 21.7844 20.1438C22.2164 18.8958 21.2564 17.6958 21.2564 17.6958C21.2564 17.6958 19.9124 18.4158 19.2884 18.6558Z" fill="#E7B549"/>
<path opacity="0.15" d="M5.36848 18.6558C5.70448 18.5598 6.04048 18.5118 6.42448 18.4158C6.18448 18.6558 5.94448 18.8478 5.75248 19.1358C5.51248 19.5198 5.36848 19.9998 5.41648 20.4798C5.46448 20.6718 5.51248 20.9118 5.60848 21.1038C5.70448 21.2958 5.80048 21.4878 5.89648 21.6318C4.36048 21.2958 3.30448 20.8638 2.96848 20.3838C2.92048 20.2878 2.87248 20.2398 2.87248 20.1438C2.44048 18.8958 3.40048 17.6958 3.40048 17.6958C3.40048 17.6958 4.79248 18.4158 5.36848 18.6558Z" fill="#E7B549"/>
<path d="M21.3517 18.0803C21.3517 19.2323 17.3197 20.1443 12.3277 20.1443C7.33573 20.1443 3.30371 19.2323 3.30371 18.0803C3.35171 15.3443 21.3517 15.3443 21.3517 18.0803Z" fill="#E7B549"/>
<path d="M22.5033 9.44012C22.5033 12.1281 21.9753 15.1041 21.0633 17.8401C21.0153 18.9441 17.1273 19.8081 12.3274 19.8081C7.52737 19.8081 3.63937 18.9441 3.59137 17.8401C2.67937 15.1041 2.15137 12.1281 2.15137 9.44012C2.15137 8.67212 2.19937 7.95212 2.24737 7.23212H4.11937C4.50337 10.0161 5.89537 12.0801 7.52737 12.0801C9.44737 12.0801 11.0314 9.15212 11.0314 5.55212V5.12012H13.5754C13.4794 7.85612 14.5834 12.0801 17.0793 12.0801C18.7113 12.0801 20.0553 10.0161 20.4873 7.23212H22.3593C22.4553 7.90412 22.5033 8.67212 22.5033 9.44012Z" fill="#E7B549"/>
<path d="M12.3772 5.07227H11.0812V5.50427C11.0812 9.10427 9.49717 12.0323 7.57717 12.0323C5.94517 12.0323 4.60117 9.96827 4.16917 7.18427H2.29717C2.20117 7.90427 2.20117 8.67227 2.20117 9.39227C2.20117 12.0803 2.72917 15.0563 3.64117 17.7923C3.68917 18.8963 7.57717 19.7603 12.3772 19.7603H12.4252V5.07227H12.3772Z" fill="#E7B549"/>
<path d="M11.0812 5.8877V6.2717C11.0812 9.8717 9.49717 12.7997 7.57717 12.7997C5.94517 12.7997 4.60117 10.7357 4.16917 7.9517H2.29717C2.24917 8.5757 2.20117 9.1997 2.20117 9.7757V9.3917C2.20117 8.6237 2.24917 7.9037 2.29717 7.1837H4.16917C4.55317 9.9677 5.94517 12.0317 7.57717 12.0317C9.44917 12.0317 10.9852 9.2957 11.0812 5.8877Z" fill="#E7B549"/>
<path d="M11.0811 5.50427V5.07227H13.6251V5.84027H11.0811V5.50427Z" fill="#E7B549"/>
<path d="M22.5051 9.4397V9.8237C22.5051 9.1997 22.4571 8.5757 22.4091 7.9997H20.5371C20.1531 10.7837 18.7611 12.8477 17.1291 12.8477C14.5851 12.8477 13.5291 8.5757 13.6251 5.8877C13.8651 13.3277 19.5291 14.3837 20.5371 7.2317H22.3611C22.4571 7.9037 22.5051 8.6717 22.5051 9.4397Z" fill="#E7B549"/>
<path opacity="0.1" d="M22.3611 7.18408H20.4891C20.1531 9.68008 19.0011 11.5521 17.6571 11.9361L16.7451 19.4721C19.2891 19.1361 21.0171 18.5121 21.0651 17.7921C21.9771 15.0561 22.5051 12.0801 22.5051 9.39208C22.5051 8.67208 22.4571 7.90408 22.3611 7.18408Z" fill="#E7B549"/>
<path opacity="0.15" d="M2.29537 7.18408H4.16737C4.50337 9.68008 5.65537 11.5521 6.99937 11.9361L7.91137 19.4721C5.36737 19.1361 3.63937 18.5121 3.59137 17.7921C2.67937 15.0561 2.15137 12.0801 2.15137 9.39208C2.15137 8.67208 2.19937 7.90408 2.29537 7.18408Z" fill="#E7B549"/>
<path d="M21.4479 9.00818C22.6143 9.00818 23.5599 8.06261 23.5599 6.89618C23.5599 5.72976 22.6143 4.78418 21.4479 4.78418C20.2815 4.78418 19.3359 5.72976 19.3359 6.89618C19.3359 8.06261 20.2815 9.00818 21.4479 9.00818Z" fill="#E7B549"/>
<path opacity="0.2" d="M21.3035 8.57622C22.3109 8.57622 23.1275 7.75958 23.1275 6.75222C23.1275 5.74485 22.3109 4.92822 21.3035 4.92822C20.2961 4.92822 19.4795 5.74485 19.4795 6.75222C19.4795 7.75958 20.2961 8.57622 21.3035 8.57622Z" fill="#E7B549"/>
<path opacity="0.2" d="M21.16 8.19212C22.0083 8.19212 22.696 7.50443 22.696 6.65612C22.696 5.80781 22.0083 5.12012 21.16 5.12012C20.3116 5.12012 19.624 5.80781 19.624 6.65612C19.624 7.50443 20.3116 8.19212 21.16 8.19212Z" fill="#E7B549"/>
<path opacity="0.2" d="M21.0161 7.56738C21.6257 7.56738 22.1201 7.0731 22.1201 6.46338C22.1201 5.85366 21.6257 5.35938 21.0161 5.35938C20.4064 5.35938 19.9121 5.85366 19.9121 6.46338C19.9121 7.0731 20.4064 7.56738 21.0161 7.56738Z" fill="#E7B549"/>
<path d="M3.112 9.00818C4.27843 9.00818 5.224 8.06261 5.224 6.89618C5.224 5.72976 4.27843 4.78418 3.112 4.78418C1.94558 4.78418 1 5.72976 1 6.89618C1 8.06261 1.94558 9.00818 3.112 9.00818Z" fill="#E7B549"/>
<path opacity="0.2" d="M3.01541 8.57622C4.02278 8.57622 4.83941 7.75958 4.83941 6.75222C4.83941 5.74485 4.02278 4.92822 3.01541 4.92822C2.00804 4.92822 1.19141 5.74485 1.19141 6.75222C1.19141 7.75958 2.00804 8.57622 3.01541 8.57622Z" fill="#E7B549"/>
<path opacity="0.2" d="M2.87194 8.19212C3.72025 8.19212 4.40794 7.50443 4.40794 6.65612C4.40794 5.80781 3.72025 5.12012 2.87194 5.12012C2.02363 5.12012 1.33594 5.80781 1.33594 6.65612C1.33594 7.50443 2.02363 8.19212 2.87194 8.19212Z" fill="#E7B549"/>
<path opacity="0.2" d="M2.72803 7.56738C3.33775 7.56738 3.83203 7.0731 3.83203 6.46338C3.83203 5.85366 3.33775 5.35938 2.72803 5.35938C2.11831 5.35938 1.62402 5.85366 1.62402 6.46338C1.62402 7.0731 2.11831 7.56738 2.72803 7.56738Z" fill="#E7B549"/>
<path d="M12.3289 7.568C13.8665 7.568 15.1129 6.32156 15.1129 4.784C15.1129 3.24644 13.8665 2 12.3289 2C10.7914 2 9.54492 3.24644 9.54492 4.784C9.54492 6.32156 10.7914 7.568 12.3289 7.568Z" fill="#E7B549"/>
<path opacity="0.2" d="M12.184 6.89638C13.483 6.89638 14.536 5.84335 14.536 4.54438C14.536 3.2454 13.483 2.19238 12.184 2.19238C10.8851 2.19238 9.83203 3.2454 9.83203 4.54438C9.83203 5.84335 10.8851 6.89638 12.184 6.89638Z" fill="#E7B549"/>
<path opacity="0.2" d="M11.9916 6.46413C13.105 6.46413 14.0076 5.56153 14.0076 4.44813C14.0076 3.33472 13.105 2.43213 11.9916 2.43213C10.8782 2.43213 9.97559 3.33472 9.97559 4.44813C9.97559 5.56153 10.8782 6.46413 11.9916 6.46413Z" fill="#E7B549"/>
<path opacity="0.2" d="M11.8013 5.64758C12.5966 5.64758 13.2413 5.00286 13.2413 4.20758C13.2413 3.41229 12.5966 2.76758 11.8013 2.76758C11.006 2.76758 10.3613 3.41229 10.3613 4.20758C10.3613 5.00286 11.006 5.64758 11.8013 5.64758Z" fill="#E7B549"/>
<path opacity="0.2" d="M11.9916 22.0642C13.105 22.0642 14.0076 21.6559 14.0076 21.1522C14.0076 20.6485 13.105 20.2402 11.9916 20.2402C10.8782 20.2402 9.97559 20.6485 9.97559 21.1522C9.97559 21.6559 10.8782 22.0642 11.9916 22.0642Z" fill="#E7B549"/>
<path opacity="0.2" d="M11.9921 21.9196C12.8404 21.9196 13.528 21.6616 13.528 21.3436C13.528 21.0254 12.8404 20.7676 11.9921 20.7676C11.1437 20.7676 10.4561 21.0254 10.4561 21.3436C10.4561 21.6616 11.1437 21.9196 11.9921 21.9196Z" fill="#E7B549"/>
</svg>
