<svg width="40" height="24" viewBox="0 0 40 24" fill="none" xmlns="http://www.w3.org/2000/svg">
<rect x="0.5" y="0.5" width="23" height="23" rx="11.5" fill="white"/>
<rect x="0.5" y="0.5" width="23" height="23" rx="11.5" stroke="#D8DBEB"/>
<path d="M9.77779 20.3332C11.3119 20.3332 12.5556 19.0895 12.5556 17.5554V14.7776H9.77779C8.24364 14.7776 7 16.0213 7 17.5554C7 19.0895 8.24364 20.3332 9.77779 20.3332Z" fill="#0ACF83"/>
<path d="M7 11.9999C7 10.4658 8.24364 9.22217 9.77779 9.22217H12.5556V14.7777H9.77779C8.24364 14.7777 7 13.534 7 11.9999Z" fill="#A259FF"/>
<path d="M7 6.44454C7 4.9104 8.24364 3.66675 9.77779 3.66675H12.5556V9.22233H9.77779C8.24364 9.22233 7 7.97863 7 6.44454Z" fill="#F24E1E"/>
<path d="M12.5557 3.66663H15.3334C16.8676 3.66663 18.1112 4.91027 18.1112 6.44442C18.1112 7.97851 16.8676 9.22221 15.3334 9.22221H12.5557V3.66663Z" fill="#FF7262"/>
<path d="M18.1112 11.9999C18.1112 13.534 16.8676 14.7777 15.3334 14.7777C13.7993 14.7777 12.5557 13.534 12.5557 11.9999C12.5557 10.4658 13.7993 9.22217 15.3334 9.22217C16.8676 9.22217 18.1112 10.4658 18.1112 11.9999Z" fill="#1ABCFE"/>
<rect x="16.5" y="0.5" width="23" height="23" rx="11.5" fill="white"/>
<rect x="16.5" y="0.5" width="23" height="23" rx="11.5" stroke="#D8DBEB"/>
<rect x="18" y="2" width="20" height="20" rx="10" fill="#0092E4"/>
<path d="M27.97 17.126C25.576 17.126 23.952 15.6 23.952 12.884V7.06H25.926V12.758C25.926 14.186 26.654 15.278 27.97 15.278C29.174 15.278 30.042 14.34 30.042 12.758V7.06H32.016V12.884C32.016 15.474 30.518 17.126 27.97 17.126Z" fill="white"/>
</svg>
